<svg xmlns="http://www.w3.org/2000/svg" xmlns:xlink="http://www.w3.org/1999/xlink" width="1920" zoomAndPan="magnify" viewBox="0 0 1440 809.999993" height="1080" preserveAspectRatio="xMidYMid meet" version="1.0"><defs><filter x="0%" y="0%" width="100%" height="100%" id="a9bd1d7266"><feColorMatrix values="0 0 0 0 1 0 0 0 0 1 0 0 0 0 1 0 0 0 1 0" color-interpolation-filters="sRGB"/></filter><linearGradient x1="0" gradientTransform="matrix(0.75, 0, 0, 0.75, 0.00000622222, 0.00002)" y1="540" x2="1919.99992" gradientUnits="userSpaceOnUse" y2="540" id="1a2c3ed109"><stop stop-opacity="1" stop-color="rgb(0%, 79.998779%, 100%)" offset="0"/><stop stop-opacity="1" stop-color="rgb(0%, 79.8172%, 100%)" offset="0.015625"/><stop stop-opacity="1" stop-color="rgb(0%, 79.455566%, 100%)" offset="0.03125"/><stop stop-opacity="1" stop-color="rgb(0%, 79.093933%, 100%)" offset="0.046875"/><stop stop-opacity="1" stop-color="rgb(0%, 78.7323%, 100%)" offset="0.0625"/><stop stop-opacity="1" stop-color="rgb(0%, 78.372192%, 100%)" offset="0.078125"/><stop stop-opacity="1" stop-color="rgb(0%, 78.010559%, 100%)" offset="0.09375"/><stop stop-opacity="1" stop-color="rgb(0%, 77.648926%, 100%)" offset="0.109375"/><stop stop-opacity="1" stop-color="rgb(0%, 77.287292%, 100%)" offset="0.125"/><stop stop-opacity="1" stop-color="rgb(0%, 76.925659%, 100%)" offset="0.140625"/><stop stop-opacity="1" stop-color="rgb(0%, 76.564026%, 100%)" offset="0.15625"/><stop stop-opacity="1" stop-color="rgb(0%, 76.202393%, 100%)" offset="0.171875"/><stop stop-opacity="1" stop-color="rgb(0%, 75.840759%, 100%)" offset="0.1875"/><stop stop-opacity="1" stop-color="rgb(0%, 75.479126%, 100%)" offset="0.203125"/><stop stop-opacity="1" stop-color="rgb(0%, 75.117493%, 100%)" offset="0.21875"/><stop stop-opacity="1" stop-color="rgb(0%, 74.755859%, 100%)" offset="0.234375"/><stop stop-opacity="1" stop-color="rgb(0%, 74.394226%, 100%)" offset="0.25"/><stop stop-opacity="1" stop-color="rgb(0%, 74.032593%, 100%)" offset="0.265625"/><stop stop-opacity="1" stop-color="rgb(0%, 73.670959%, 100%)" offset="0.28125"/><stop stop-opacity="1" stop-color="rgb(0%, 73.309326%, 100%)" offset="0.296875"/><stop stop-opacity="1" stop-color="rgb(0%, 72.947693%, 100%)" offset="0.3125"/><stop stop-opacity="1" stop-color="rgb(0%, 72.58606%, 100%)" offset="0.328125"/><stop stop-opacity="1" stop-color="rgb(0%, 72.224426%, 100%)" offset="0.34375"/><stop stop-opacity="1" stop-color="rgb(0%, 71.862793%, 100%)" offset="0.359375"/><stop stop-opacity="1" stop-color="rgb(0%, 71.50116%, 100%)" offset="0.375"/><stop stop-opacity="1" stop-color="rgb(0%, 71.139526%, 100%)" offset="0.390625"/><stop stop-opacity="1" stop-color="rgb(0%, 70.779419%, 100%)" offset="0.40625"/><stop stop-opacity="1" stop-color="rgb(0%, 70.417786%, 100%)" offset="0.421875"/><stop stop-opacity="1" stop-color="rgb(0%, 70.056152%, 100%)" offset="0.4375"/><stop stop-opacity="1" stop-color="rgb(0%, 69.694519%, 100%)" offset="0.453125"/><stop stop-opacity="1" stop-color="rgb(0%, 69.332886%, 100%)" offset="0.46875"/><stop stop-opacity="1" stop-color="rgb(0%, 68.971252%, 100%)" offset="0.484375"/><stop stop-opacity="1" stop-color="rgb(0%, 68.609619%, 100%)" offset="0.5"/><stop stop-opacity="1" stop-color="rgb(0%, 68.247986%, 100%)" offset="0.515625"/><stop stop-opacity="1" stop-color="rgb(0%, 67.886353%, 100%)" offset="0.53125"/><stop stop-opacity="1" stop-color="rgb(0%, 67.524719%, 100%)" offset="0.546875"/><stop stop-opacity="1" stop-color="rgb(0%, 67.163086%, 100%)" offset="0.5625"/><stop stop-opacity="1" stop-color="rgb(0%, 66.801453%, 100%)" offset="0.578125"/><stop stop-opacity="1" stop-color="rgb(0%, 66.439819%, 100%)" offset="0.59375"/><stop stop-opacity="1" stop-color="rgb(0%, 66.078186%, 100%)" offset="0.609375"/><stop stop-opacity="1" stop-color="rgb(0%, 65.716553%, 100%)" offset="0.625"/><stop stop-opacity="1" stop-color="rgb(0%, 65.354919%, 100%)" offset="0.640625"/><stop stop-opacity="1" stop-color="rgb(0%, 64.993286%, 100%)" offset="0.65625"/><stop stop-opacity="1" stop-color="rgb(0%, 64.631653%, 100%)" offset="0.671875"/><stop stop-opacity="1" stop-color="rgb(0%, 64.27002%, 100%)" offset="0.6875"/><stop stop-opacity="1" stop-color="rgb(0%, 63.908386%, 100%)" offset="0.703125"/><stop stop-opacity="1" stop-color="rgb(0%, 63.546753%, 100%)" offset="0.71875"/><stop stop-opacity="1" stop-color="rgb(0%, 63.18512%, 100%)" offset="0.734375"/><stop stop-opacity="1" stop-color="rgb(0%, 62.825012%, 100%)" offset="0.75"/><stop stop-opacity="1" stop-color="rgb(0%, 62.463379%, 100%)" offset="0.765625"/><stop stop-opacity="1" stop-color="rgb(0%, 62.101746%, 100%)" offset="0.78125"/><stop stop-opacity="1" stop-color="rgb(0%, 61.740112%, 100%)" offset="0.796875"/><stop stop-opacity="1" stop-color="rgb(0%, 61.378479%, 100%)" offset="0.8125"/><stop stop-opacity="1" stop-color="rgb(0%, 61.016846%, 100%)" offset="0.828125"/><stop stop-opacity="1" stop-color="rgb(0%, 60.655212%, 100%)" offset="0.84375"/><stop stop-opacity="1" stop-color="rgb(0%, 60.293579%, 100%)" offset="0.859375"/><stop stop-opacity="1" stop-color="rgb(0%, 59.931946%, 100%)" offset="0.875"/><stop stop-opacity="1" stop-color="rgb(0%, 59.570312%, 100%)" offset="0.890625"/><stop stop-opacity="1" stop-color="rgb(0%, 59.208679%, 100%)" offset="0.90625"/><stop stop-opacity="1" stop-color="rgb(0%, 58.847046%, 100%)" offset="0.921875"/><stop stop-opacity="1" stop-color="rgb(0%, 58.485413%, 100%)" offset="0.9375"/><stop stop-opacity="1" stop-color="rgb(0%, 58.123779%, 100%)" offset="0.953125"/><stop stop-opacity="1" stop-color="rgb(0%, 57.762146%, 100%)" offset="0.96875"/><stop stop-opacity="1" stop-color="rgb(0%, 57.400513%, 100%)" offset="0.984375"/><stop stop-opacity="1" stop-color="rgb(0%, 57.038879%, 100%)" offset="1"/></linearGradient><clipPath id="0fdcb866fa"><path d="M 92 0.839844 L 192 0.839844 L 192 99.480469 L 92 99.480469 Z M 92 0.839844 " clip-rule="nonzero"/></clipPath><mask id="5b1e7bfc26"><g filter="url(#a9bd1d7266)"><rect x="-316.8" width="2073.6" fill="#000000" y="-373.199998" height="1166.39999" fill-opacity="0.2"/></g></mask><clipPath id="8a1884e6d1"><path d="M 0.363281 0.929688 L 98.820312 0.929688 L 98.820312 99.386719 L 0.363281 99.386719 Z M 0.363281 0.929688 " clip-rule="nonzero"/></clipPath><clipPath id="66a618697d"><rect x="0" width="100" y="0" height="100"/></clipPath><clipPath id="5abba494ee"><path d="M 307 0.839844 L 407 0.839844 L 407 99.480469 L 307 99.480469 Z M 307 0.839844 " clip-rule="nonzero"/></clipPath><mask id="891ea14fdd"><g filter="url(#a9bd1d7266)"><rect x="-316.8" width="2073.6" fill="#000000" y="-373.199998" height="1166.39999" fill-opacity="0.2"/></g></mask><clipPath id="cd3c7b9a43"><path d="M 0.503906 0.929688 L 98.964844 0.929688 L 98.964844 99.386719 L 0.503906 99.386719 Z M 0.503906 0.929688 " clip-rule="nonzero"/></clipPath><clipPath id="bbf3d09f4a"><rect x="0" width="100" y="0" height="100"/></clipPath><clipPath id="db7b597c55"><path d="M 199 0.839844 L 299 0.839844 L 299 99.480469 L 199 99.480469 Z M 199 0.839844 " clip-rule="nonzero"/></clipPath><mask id="9279c6bf64"><g filter="url(#a9bd1d7266)"><rect x="-316.8" width="2073.6" fill="#000000" y="-373.199998" height="1166.39999" fill-opacity="0.2"/></g></mask><clipPath id="15539a0d70"><path d="M 0.855469 0.929688 L 99.3125 0.929688 L 99.3125 99.386719 L 0.855469 99.386719 Z M 0.855469 0.929688 " clip-rule="nonzero"/></clipPath><clipPath id="e9878da8bb"><path d="M 0.855469 0.96875 L 99.3125 0.96875 L 99.3125 99.386719 L 0.855469 99.386719 Z M 0.855469 0.96875 " clip-rule="nonzero"/></clipPath><clipPath id="6a435959e5"><rect x="0" width="100" y="0" height="100"/></clipPath><clipPath id="b70e78231b"><rect x="0" width="100" y="0" height="100"/></clipPath><clipPath id="fd011e79d9"><path d="M 0 0.839844 L 84 0.839844 L 84 99.480469 L 0 99.480469 Z M 0 0.839844 " clip-rule="nonzero"/></clipPath><mask id="c4c8871615"><g filter="url(#a9bd1d7266)"><rect x="-316.8" width="2073.6" fill="#000000" y="-373.199998" height="1166.39999" fill-opacity="0.2"/></g></mask><clipPath id="cc19df6618"><path d="M 0 0.929688 L 83.402344 0.929688 L 83.402344 99.386719 L 0 99.386719 Z M 0 0.929688 " clip-rule="nonzero"/></clipPath><clipPath id="a085eca289"><path d="M 0 0.96875 L 83.359375 0.96875 L 83.359375 99.386719 L 0 99.386719 Z M 0 0.96875 " clip-rule="nonzero"/></clipPath><clipPath id="55cbe652cd"><rect x="0" width="84" y="0" height="100"/></clipPath><clipPath id="f020238d4b"><rect x="0" width="84" y="0" height="100"/></clipPath><clipPath id="acd6b66619"><path d="M 632 0.839844 L 731 0.839844 L 731 99.480469 L 632 99.480469 Z M 632 0.839844 " clip-rule="nonzero"/></clipPath><mask id="6a73f2865e"><g filter="url(#a9bd1d7266)"><rect x="-316.8" width="2073.6" fill="#000000" y="-373.199998" height="1166.39999" fill-opacity="0.2"/></g></mask><clipPath id="061e7e509d"><path d="M 0.257812 0.929688 L 98.714844 0.929688 L 98.714844 99.386719 L 0.257812 99.386719 Z M 0.257812 0.929688 " clip-rule="nonzero"/></clipPath><clipPath id="eeccc8abf5"><rect x="0" width="99" y="0" height="100"/></clipPath><clipPath id="e23bdd3b37"><path d="M 847 0.839844 L 947 0.839844 L 947 99.480469 L 847 99.480469 Z M 847 0.839844 " clip-rule="nonzero"/></clipPath><mask id="ce25421c49"><g filter="url(#a9bd1d7266)"><rect x="-316.8" width="2073.6" fill="#000000" y="-373.199998" height="1166.39999" fill-opacity="0.2"/></g></mask><clipPath id="913cab2824"><path d="M 0.398438 0.929688 L 98.859375 0.929688 L 98.859375 99.386719 L 0.398438 99.386719 Z M 0.398438 0.929688 " clip-rule="nonzero"/></clipPath><clipPath id="3e3a4e1329"><rect x="0" width="100" y="0" height="100"/></clipPath><clipPath id="22a0d345e6"><path d="M 739 0.839844 L 839 0.839844 L 839 99.480469 L 739 99.480469 Z M 739 0.839844 " clip-rule="nonzero"/></clipPath><mask id="d7cc32d97e"><g filter="url(#a9bd1d7266)"><rect x="-316.8" width="2073.6" fill="#000000" y="-373.199998" height="1166.39999" fill-opacity="0.2"/></g></mask><clipPath id="9ae0ea6695"><path d="M 0.75 0.929688 L 99.207031 0.929688 L 99.207031 99.386719 L 0.75 99.386719 Z M 0.75 0.929688 " clip-rule="nonzero"/></clipPath><clipPath id="722a81630c"><path d="M 0.75 0.96875 L 99.207031 0.96875 L 99.207031 99.386719 L 0.75 99.386719 Z M 0.75 0.96875 " clip-rule="nonzero"/></clipPath><clipPath id="1e0031275d"><rect x="0" width="100" y="0" height="100"/></clipPath><clipPath id="af14a38b2a"><rect x="0" width="100" y="0" height="100"/></clipPath><clipPath id="dfc9aef39f"><path d="M 524 0.839844 L 624 0.839844 L 624 99.480469 L 524 99.480469 Z M 524 0.839844 " clip-rule="nonzero"/></clipPath><mask id="ad42fa2584"><g filter="url(#a9bd1d7266)"><rect x="-316.8" width="2073.6" fill="#000000" y="-373.199998" height="1166.39999" fill-opacity="0.2"/></g></mask><clipPath id="c66d2aba16"><path d="M 0.839844 0.929688 L 99.296875 0.929688 L 99.296875 99.386719 L 0.839844 99.386719 Z M 0.839844 0.929688 " clip-rule="nonzero"/></clipPath><clipPath id="b77e8ecac5"><path d="M 0.839844 0.96875 L 99.253906 0.96875 L 99.253906 99.386719 L 0.839844 99.386719 Z M 0.839844 0.96875 " clip-rule="nonzero"/></clipPath><clipPath id="2a208080a1"><rect x="0" width="100" y="0" height="100"/></clipPath><clipPath id="532b66dd9b"><rect x="0" width="100" y="0" height="100"/></clipPath><clipPath id="edb255828c"><path d="M 417 0.839844 L 516 0.839844 L 516 99.480469 L 417 99.480469 Z M 417 0.839844 " clip-rule="nonzero"/></clipPath><mask id="78821fa254"><g filter="url(#a9bd1d7266)"><rect x="-316.8" width="2073.6" fill="#000000" y="-373.199998" height="1166.39999" fill-opacity="0.2"/></g></mask><clipPath id="847247a102"><path d="M 0.347656 0.929688 L 98.804688 0.929688 L 98.804688 99.386719 L 0.347656 99.386719 Z M 0.347656 0.929688 " clip-rule="nonzero"/></clipPath><clipPath id="9666c032f3"><path d="M 0.347656 0.96875 L 98.804688 0.96875 L 98.804688 99.386719 L 0.347656 99.386719 Z M 0.347656 0.96875 " clip-rule="nonzero"/></clipPath><clipPath id="95349c71ad"><rect x="0" width="99" y="0" height="100"/></clipPath><clipPath id="1e278566b9"><rect x="0" width="99" y="0" height="100"/></clipPath><clipPath id="6a7d7fd72f"><path d="M 1171 0.839844 L 1271 0.839844 L 1271 99.480469 L 1171 99.480469 Z M 1171 0.839844 " clip-rule="nonzero"/></clipPath><mask id="26993d470a"><g filter="url(#a9bd1d7266)"><rect x="-316.8" width="2073.6" fill="#000000" y="-373.199998" height="1166.39999" fill-opacity="0.2"/></g></mask><clipPath id="6097d55387"><path d="M 1.019531 0.929688 L 99.476562 0.929688 L 99.476562 99.386719 L 1.019531 99.386719 Z M 1.019531 0.929688 " clip-rule="nonzero"/></clipPath><clipPath id="e3ef9cb5ae"><rect x="0" width="100" y="0" height="100"/></clipPath><clipPath id="da7d5a395c"><path d="M 1386 0.839844 L 1440 0.839844 L 1440 99.480469 L 1386 99.480469 Z M 1386 0.839844 " clip-rule="nonzero"/></clipPath><mask id="2fbbd5e033"><g filter="url(#a9bd1d7266)"><rect x="-316.8" width="2073.6" fill="#000000" y="-373.199998" height="1166.39999" fill-opacity="0.2"/></g></mask><clipPath id="bb23b347b8"><path d="M 1.160156 0.929688 L 54 0.929688 L 54 99.386719 L 1.160156 99.386719 Z M 1.160156 0.929688 " clip-rule="nonzero"/></clipPath><clipPath id="079c92cbb3"><rect x="0" width="54" y="0" height="100"/></clipPath><clipPath id="09694d7a08"><path d="M 1279 0.839844 L 1379 0.839844 L 1379 99.480469 L 1279 99.480469 Z M 1279 0.839844 " clip-rule="nonzero"/></clipPath><mask id="857b67d40b"><g filter="url(#a9bd1d7266)"><rect x="-316.8" width="2073.6" fill="#000000" y="-373.199998" height="1166.39999" fill-opacity="0.2"/></g></mask><clipPath id="e51b8e89ec"><path d="M 0.507812 0.929688 L 98.96875 0.929688 L 98.96875 99.386719 L 0.507812 99.386719 Z M 0.507812 0.929688 " clip-rule="nonzero"/></clipPath><clipPath id="22cd263d34"><path d="M 0.507812 0.96875 L 98.96875 0.96875 L 98.96875 99.386719 L 0.507812 99.386719 Z M 0.507812 0.96875 " clip-rule="nonzero"/></clipPath><clipPath id="d06b6219b2"><rect x="0" width="99" y="0" height="100"/></clipPath><clipPath id="d4400fe6dd"><rect x="0" width="100" y="0" height="100"/></clipPath><clipPath id="c13cdca224"><path d="M 1064 0.839844 L 1164 0.839844 L 1164 99.480469 L 1064 99.480469 Z M 1064 0.839844 " clip-rule="nonzero"/></clipPath><mask id="4fcc5b5135"><g filter="url(#a9bd1d7266)"><rect x="-316.8" width="2073.6" fill="#000000" y="-373.199998" height="1166.39999" fill-opacity="0.2"/></g></mask><clipPath id="1df66b074f"><path d="M 0.597656 0.929688 L 99.058594 0.929688 L 99.058594 99.386719 L 0.597656 99.386719 Z M 0.597656 0.929688 " clip-rule="nonzero"/></clipPath><clipPath id="862284ec00"><path d="M 0.597656 0.96875 L 99.015625 0.96875 L 99.015625 99.386719 L 0.597656 99.386719 Z M 0.597656 0.96875 " clip-rule="nonzero"/></clipPath><clipPath id="112886dc31"><rect x="0" width="100" y="0" height="100"/></clipPath><clipPath id="9250f85bb0"><rect x="0" width="100" y="0" height="100"/></clipPath><clipPath id="702202d487"><path d="M 956 0.839844 L 1056 0.839844 L 1056 99.480469 L 956 99.480469 Z M 956 0.839844 " clip-rule="nonzero"/></clipPath><mask id="86d79f4fe0"><g filter="url(#a9bd1d7266)"><rect x="-316.8" width="2073.6" fill="#000000" y="-373.199998" height="1166.39999" fill-opacity="0.2"/></g></mask><clipPath id="7617dc7b34"><path d="M 1.109375 0.929688 L 99.566406 0.929688 L 99.566406 99.386719 L 1.109375 99.386719 Z M 1.109375 0.929688 " clip-rule="nonzero"/></clipPath><clipPath id="28d211e41a"><path d="M 0.109375 0.96875 L 98.566406 0.96875 L 98.566406 99.386719 L 0.109375 99.386719 Z M 0.109375 0.96875 " clip-rule="nonzero"/></clipPath><clipPath id="4118bc19fb"><rect x="0" width="99" y="0" height="100"/></clipPath><clipPath id="3c7c8f63c6"><rect x="0" width="100" y="0" height="100"/></clipPath><clipPath id="1a12ab13a1"><rect x="0" width="1440" y="0" height="100"/></clipPath></defs><rect x="-144" width="1728" fill="#ffffff" y="-80.999999" height="971.999992" fill-opacity="1"/><rect x="-144" fill="url(#1a2c3ed109)" width="1728" y="-80.999999" height="971.999992"/><g transform="matrix(1, 0, 0, 1, 0, 195)"><g clip-path="url(#1a12ab13a1)"><g clip-path="url(#0fdcb866fa)"><g mask="url(#5b1e7bfc26)"><g transform="matrix(1, 0, 0, 1, 92, 0.000000000000056843)"><g clip-path="url(#66a618697d)"><g clip-path="url(#8a1884e6d1)"><path fill="#08122e" d="M 54.960938 99.429688 L 98.820312 99.429688 C 98.820312 45.027344 54.722656 0.929688 0.320312 0.929688 L 0.320312 44.789062 C 30.496094 44.789062 54.960938 69.253906 54.960938 99.429688 Z M 54.960938 99.429688 " fill-opacity="1" fill-rule="nonzero"/></g></g></g></g></g><g clip-path="url(#5abba494ee)"><g mask="url(#891ea14fdd)"><g transform="matrix(1, 0, 0, 1, 307, 0.000000000000056843)"><g clip-path="url(#bbf3d09f4a)"><g clip-path="url(#cd3c7b9a43)"><path fill="#08122e" d="M 55.101562 99.429688 L 98.964844 99.429688 C 98.964844 45.027344 54.863281 0.929688 0.464844 0.929688 L 0.464844 44.789062 C 30.640625 44.789062 55.101562 69.253906 55.101562 99.429688 Z M 55.101562 99.429688 " fill-opacity="1" fill-rule="nonzero"/></g></g></g></g></g><g clip-path="url(#db7b597c55)"><g mask="url(#9279c6bf64)"><g transform="matrix(1, 0, 0, 1, 199, 0.000000000000056843)"><g clip-path="url(#b70e78231b)"><g clip-path="url(#15539a0d70)"><g transform="matrix(1, 0, 0, 1, 0, 0.000000000000056843)"><g clip-path="url(#6a435959e5)"><g clip-path="url(#e9878da8bb)"><path fill="#08122e" d="M 55.449219 0.929688 L 99.3125 0.929688 C 99.3125 55.328125 55.214844 99.429688 0.8125 99.429688 L 0.8125 55.566406 C 30.988281 55.566406 55.449219 31.105469 55.449219 0.929688 Z M 55.449219 0.929688 " fill-opacity="1" fill-rule="nonzero"/></g></g></g></g></g></g></g></g><g clip-path="url(#fd011e79d9)"><g mask="url(#c4c8871615)"><g transform="matrix(1, 0, 0, 1, 0, 0.000000000000056843)"><g clip-path="url(#f020238d4b)"><g clip-path="url(#cc19df6618)"><g transform="matrix(1, 0, 0, 1, 0, 0.000000000000056843)"><g clip-path="url(#55cbe652cd)"><g clip-path="url(#a085eca289)"><path fill="#08122e" d="M 28.761719 0.929688 L -15.097656 0.929688 C -15.097656 55.328125 29 99.429688 83.402344 99.429688 L 83.402344 55.566406 C 53.226562 55.566406 28.761719 31.105469 28.761719 0.929688 Z M 28.761719 0.929688 " fill-opacity="1" fill-rule="nonzero"/></g></g></g></g></g></g></g></g><g clip-path="url(#acd6b66619)"><g mask="url(#6a73f2865e)"><g transform="matrix(1, 0, 0, 1, 632, 0.000000000000056843)"><g clip-path="url(#eeccc8abf5)"><g clip-path="url(#061e7e509d)"><path fill="#08122e" d="M 54.855469 99.429688 L 98.714844 99.429688 C 98.714844 45.027344 54.617188 0.929688 0.214844 0.929688 L 0.214844 44.789062 C 30.390625 44.789062 54.855469 69.253906 54.855469 99.429688 Z M 54.855469 99.429688 " fill-opacity="1" fill-rule="nonzero"/></g></g></g></g></g><g clip-path="url(#e23bdd3b37)"><g mask="url(#ce25421c49)"><g transform="matrix(1, 0, 0, 1, 847, 0.000000000000056843)"><g clip-path="url(#3e3a4e1329)"><g clip-path="url(#913cab2824)"><path fill="#08122e" d="M 54.996094 99.429688 L 98.859375 99.429688 C 98.859375 45.027344 54.757812 0.929688 0.359375 0.929688 L 0.359375 44.789062 C 30.535156 44.789062 54.996094 69.253906 54.996094 99.429688 Z M 54.996094 99.429688 " fill-opacity="1" fill-rule="nonzero"/></g></g></g></g></g><g clip-path="url(#22a0d345e6)"><g mask="url(#d7cc32d97e)"><g transform="matrix(1, 0, 0, 1, 739, 0.000000000000056843)"><g clip-path="url(#af14a38b2a)"><g clip-path="url(#9ae0ea6695)"><g transform="matrix(1, 0, 0, 1, 0, 0.000000000000056843)"><g clip-path="url(#1e0031275d)"><g clip-path="url(#722a81630c)"><path fill="#08122e" d="M 55.34375 0.929688 L 99.207031 0.929688 C 99.207031 55.328125 55.109375 99.429688 0.707031 99.429688 L 0.707031 55.566406 C 30.882812 55.566406 55.34375 31.105469 55.34375 0.929688 Z M 55.34375 0.929688 " fill-opacity="1" fill-rule="nonzero"/></g></g></g></g></g></g></g></g><g clip-path="url(#dfc9aef39f)"><g mask="url(#ad42fa2584)"><g transform="matrix(1, 0, 0, 1, 524, 0.000000000000056843)"><g clip-path="url(#532b66dd9b)"><g clip-path="url(#c66d2aba16)"><g transform="matrix(1, 0, 0, 1, 0, 0.000000000000056843)"><g clip-path="url(#2a208080a1)"><g clip-path="url(#b77e8ecac5)"><path fill="#08122e" d="M 44.660156 0.929688 L 0.796875 0.929688 C 0.796875 55.328125 44.894531 99.429688 99.296875 99.429688 L 99.296875 55.566406 C 69.121094 55.566406 44.660156 31.105469 44.660156 0.929688 Z M 44.660156 0.929688 " fill-opacity="1" fill-rule="nonzero"/></g></g></g></g></g></g></g></g><g clip-path="url(#edb255828c)"><g mask="url(#78821fa254)"><g transform="matrix(1, 0, 0, 1, 417, 0.000000000000056843)"><g clip-path="url(#1e278566b9)"><g clip-path="url(#847247a102)"><g transform="matrix(1, 0, 0, 1, 0, 0.000000000000056843)"><g clip-path="url(#95349c71ad)"><g clip-path="url(#9666c032f3)"><path fill="#08122e" d="M 54.945312 0.929688 L 98.804688 0.929688 C 98.804688 55.328125 54.707031 99.429688 0.304688 99.429688 L 0.304688 55.566406 C 30.480469 55.566406 54.945312 31.105469 54.945312 0.929688 Z M 54.945312 0.929688 " fill-opacity="1" fill-rule="nonzero"/></g></g></g></g></g></g></g></g><g clip-path="url(#6a7d7fd72f)"><g mask="url(#26993d470a)"><g transform="matrix(1, 0, 0, 1, 1171, 0.000000000000056843)"><g clip-path="url(#e3ef9cb5ae)"><g clip-path="url(#6097d55387)"><path fill="#08122e" d="M 55.613281 99.429688 L 99.476562 99.429688 C 99.476562 45.027344 55.378906 0.929688 0.976562 0.929688 L 0.976562 44.789062 C 31.152344 44.789062 55.613281 69.253906 55.613281 99.429688 Z M 55.613281 99.429688 " fill-opacity="1" fill-rule="nonzero"/></g></g></g></g></g><g clip-path="url(#da7d5a395c)"><g mask="url(#2fbbd5e033)"><g transform="matrix(1, 0, 0, 1, 1386, 0.000000000000056843)"><g clip-path="url(#079c92cbb3)"><g clip-path="url(#bb23b347b8)"><path fill="#08122e" d="M 55.757812 99.429688 L 99.621094 99.429688 C 99.621094 45.027344 55.519531 0.929688 1.121094 0.929688 L 1.121094 44.789062 C 31.296875 44.789062 55.757812 69.253906 55.757812 99.429688 Z M 55.757812 99.429688 " fill-opacity="1" fill-rule="nonzero"/></g></g></g></g></g><g clip-path="url(#09694d7a08)"><g mask="url(#857b67d40b)"><g transform="matrix(1, 0, 0, 1, 1279, 0.000000000000056843)"><g clip-path="url(#d4400fe6dd)"><g clip-path="url(#e51b8e89ec)"><g transform="matrix(1, 0, 0, 1, 0, 0.000000000000056843)"><g clip-path="url(#d06b6219b2)"><g clip-path="url(#22cd263d34)"><path fill="#08122e" d="M 55.105469 0.929688 L 98.96875 0.929688 C 98.96875 55.328125 54.867188 99.429688 0.46875 99.429688 L 0.46875 55.566406 C 30.644531 55.566406 55.105469 31.105469 55.105469 0.929688 Z M 55.105469 0.929688 " fill-opacity="1" fill-rule="nonzero"/></g></g></g></g></g></g></g></g><g clip-path="url(#c13cdca224)"><g mask="url(#4fcc5b5135)"><g transform="matrix(1, 0, 0, 1, 1064, 0.000000000000056843)"><g clip-path="url(#9250f85bb0)"><g clip-path="url(#1df66b074f)"><g transform="matrix(1, 0, 0, 1, 0, 0.000000000000056843)"><g clip-path="url(#112886dc31)"><g clip-path="url(#862284ec00)"><path fill="#08122e" d="M 44.417969 0.929688 L 0.558594 0.929688 C 0.558594 55.328125 44.65625 99.429688 99.058594 99.429688 L 99.058594 55.566406 C 68.882812 55.566406 44.417969 31.105469 44.417969 0.929688 Z M 44.417969 0.929688 " fill-opacity="1" fill-rule="nonzero"/></g></g></g></g></g></g></g></g><g clip-path="url(#702202d487)"><g mask="url(#86d79f4fe0)"><g transform="matrix(1, 0, 0, 1, 956, 0.000000000000056843)"><g clip-path="url(#3c7c8f63c6)"><g clip-path="url(#7617dc7b34)"><g transform="matrix(1, 0, 0, 1, 1, 0.000000000000056843)"><g clip-path="url(#4118bc19fb)"><g clip-path="url(#28d211e41a)"><path fill="#08122e" d="M 54.703125 0.929688 L 98.566406 0.929688 C 98.566406 55.328125 54.46875 99.429688 0.0664062 99.429688 L 0.0664062 55.566406 C 30.242188 55.566406 54.703125 31.105469 54.703125 0.929688 Z M 54.703125 0.929688 " fill-opacity="1" fill-rule="nonzero"/></g></g></g></g></g></g></g></g></g></g></svg>